<svg width="24" height="24" viewBox="0 0 24 24" fill="none" xmlns="http://www.w3.org/2000/svg">
<path fill-rule="evenodd" clip-rule="evenodd" d="M12.0088 1C18.0838 1.00013 23.0088 5.92495 23.0088 12C23.0088 18.0751 18.0838 22.9999 12.0088 23C5.93366 23 1.00879 18.0751 1.00879 12C1.00879 5.92487 5.93366 1 12.0088 1ZM15.2334 8.18164C14.7935 7.90876 14.2244 8.01854 13.915 8.41992L13.8564 8.50391L10.3359 14.1768L9.17578 12.5L9.11328 12.4189C8.7842 12.0337 8.20983 11.9526 7.78418 12.2471C7.35845 12.5418 7.23254 13.108 7.47754 13.5518L7.53125 13.6387L8.86523 15.5654C8.97005 15.7169 9.08643 15.8877 9.19824 16.0215C9.29692 16.1396 9.46013 16.3154 9.70508 16.4375L9.81445 16.4863C10.1885 16.6319 10.6053 16.6211 10.9717 16.457L11.0791 16.4033C11.3175 16.2692 11.4718 16.0857 11.5645 15.9629C11.6695 15.8237 11.7769 15.6468 11.874 15.4902L15.5557 9.55859L15.6055 9.46875C15.8277 9.01334 15.6732 8.45462 15.2334 8.18164Z" fill="black"/>
</svg>
